<?xml version="1.0" encoding="iso-8859-1"?>
<!-- Generator: Adobe Illustrator 19.0.0, SVG Export Plug-In . SVG Version: 6.00 Build 0)  -->
<svg version="1.1" id="Layer_1" xmlns="http://www.w3.org/2000/svg" xmlns:xlink="http://www.w3.org/1999/xlink" x="0px" y="0px"
	 viewBox="0 0 495 495" style="enable-background:new 0 0 495 495;" xml:space="preserve">
<g>
	<rect x="172.399" y="381.4" style="fill:#FFDA44;" width="40" height="40"/>
	<rect x="227.5" y="381.4" style="fill:#FFDA44;" width="40" height="40"/>
	<rect x="282.601" y="381.4" style="fill:#FFDA44;" width="40" height="40"/>
	<path style="fill:#2488FF;" d="M57.298,401.4c0,27.57,22.43,50,50,50v-100C79.728,351.4,57.298,373.83,57.298,401.4z"/>
	<path style="fill:#005ECE;" d="M107.298,351.4v100c27.57,0,50.001-22.43,50.001-50C157.299,373.83,134.868,351.4,107.298,351.4z"/>
	<path style="fill:#CD2A00;" d="M387.7,43.6v67.3c22.06,0,40,17.94,40,40c0,22.05-17.94,40-40,40v132.31l84.19-105.85
		c14.9-18.84,23.11-42.45,23.11-66.46C495,91.73,446.87,43.6,387.7,43.6z"/>
	<path style="fill:#D8D7DA;" d="M427.7,150.9c0-22.06-17.94-40-40-40v80C409.76,190.9,427.7,172.95,427.7,150.9z"/>
	<path style="fill:#FF3501;" d="M347.7,150.9c0-22.06,17.95-40,40-40V43.6c-59.16,0-107.3,48.13-107.3,107.3
		c0,24.01,8.21,47.62,23.15,66.51l84.15,105.8V190.9C365.65,190.9,347.7,172.95,347.7,150.9z"/>
	<path style="fill:#FFFFFF;" d="M347.7,150.9c0,22.05,17.95,40,40,40v-80C365.65,110.9,347.7,128.84,347.7,150.9z"/>
	<path style="fill:#CD2A00;" d="M107.3,43.6v67.3c22.05,0,40,17.94,40,40c0,22.05-17.95,40-40,40v132.31l84.19-105.85
		c14.9-18.84,23.11-42.45,23.11-66.46C214.6,91.73,166.46,43.6,107.3,43.6z"/>
	<path style="fill:#D8D7DA;" d="M147.3,150.9c0-22.06-17.95-40-40-40v80C129.35,190.9,147.3,172.95,147.3,150.9z"/>
	<path style="fill:#FF3501;" d="M67.3,150.9c0-22.06,17.94-40,40-40V43.6C48.13,43.6,0,91.73,0,150.9
		c0,24.01,8.21,47.62,23.15,66.51l84.15,105.8V190.9C85.24,190.9,67.3,172.95,67.3,150.9z"/>
	<path style="fill:#FFFFFF;" d="M67.3,150.9c0,22.05,17.94,40,40,40v-80C85.24,110.9,67.3,128.84,67.3,150.9z"/>
	<path style="fill:#2488FF;" d="M337.701,401.4c0,27.57,22.43,50,50,50v-100C360.131,351.4,337.701,373.83,337.701,401.4z"/>
	<path style="fill:#005ECE;" d="M387.701,351.4v100c27.57,0,50.001-22.43,50.001-50C437.702,373.83,415.271,351.4,387.701,351.4z"/>
</g>
<g>
</g>
<g>
</g>
<g>
</g>
<g>
</g>
<g>
</g>
<g>
</g>
<g>
</g>
<g>
</g>
<g>
</g>
<g>
</g>
<g>
</g>
<g>
</g>
<g>
</g>
<g>
</g>
<g>
</g>
</svg>
